<svg width="43" height="43" fill="none" xmlns="http://www.w3.org/2000/svg"><ellipse cx="21.5" cy="21.5" rx="21.49" ry="21.5" fill="#fff"/><path d="M30.9 25.93l-.07-.12a10.1 10.1 0 00-2-2.22l-.01-.02-.01-.01-.01-.01h-.01c-.45-.4-.73-.68-.85-.82-.21-.27-.26-.54-.14-.82.08-.2.4-.64.93-1.31l.68-.85c1.2-1.54 1.72-2.53 1.56-2.96l-.06-.1c-.04-.06-.15-.11-.32-.16a1.7 1.7 0 00-.67-.03l-3 .02a.4.4 0 00-.2 0l-.14.04-.05.02-.05.03a.46.46 0 00-.11.1.68.68 0 00-.1.19 16.14 16.14 0 01-1.83 3.33 5.21 5.21 0 01-.93 1.02c-.12.09-.21.13-.27.11a8.54 8.54 0 01-.18-.04.68.68 0 01-.24-.24c-.05-.1-.1-.24-.12-.4a4.17 4.17 0 01-.03-.88l.01-.43a24.08 24.08 0 01.05-1.53v-.55c0-.2 0-.35-.03-.46a1.52 1.52 0 00-.11-.32.55.55 0 00-.21-.24c-.1-.06-.21-.1-.35-.14a7.18 7.18 0 00-1.4-.13 7.07 7.07 0 00-2.5.24 1.4 1.4 0 00-.4.3c-.12.15-.14.23-.04.24.41.06.7.2.88.44l.06.12c.05.08.1.24.15.46a7.54 7.54 0 01-.15 3.27 2 2 0 01-.12.22.18.18 0 01-.05.05.8.8 0 01-.29.05.67.67 0 01-.35-.14c-.14-.1-.28-.22-.43-.39-.15-.16-.32-.39-.5-.68-.2-.3-.39-.65-.59-1.05l-.17-.29a24.56 24.56 0 01-.9-1.86.66.66 0 00-.25-.32l-.05-.03a1.14 1.14 0 00-.4-.15l-2.86.02c-.3 0-.5.07-.6.2l-.04.05a.32.32 0 00-.03.16c0 .08.02.17.06.28a32.6 32.6 0 003.74 6.36 22.38 22.38 0 001.03 1.21l.26.25a12.6 12.6 0 001.8 1.24 5.94 5.94 0 002.9.7h1.2c.24-.03.42-.1.55-.23l.04-.05c.03-.04.05-.1.08-.18a.98.98 0 00.03-.28c0-.29.02-.55.07-.78a2 2 0 01.18-.52 1.28 1.28 0 01.4-.44.7.7 0 01.08-.04c.17-.05.37 0 .6.16.22.16.43.35.63.58.2.23.43.5.71.78.28.29.52.5.73.64l.2.12c.15.08.33.16.55.22.22.07.41.09.58.05l2.67-.04c.26 0 .47-.04.61-.12.15-.09.23-.18.26-.28a.75.75 0 000-.34 1.23 1.23 0 00-.07-.27z" fill="#000"/></svg>