<svg width="82" height="22" fill="none" xmlns="http://www.w3.org/2000/svg"><path d="M18.8.7l-3.9 11.8H12l-2.6-8-2.6 8h-3L0 .7h2.8L5.5 9 8.2.7h2.5l2.7 8.4L16.2.7h2.6zM28.3 8v.7h-7c.2.6.5 1 1 1.4.4.3 1 .4 1.7.4.4 0 .8 0 1.2-.2.4-.1.7-.3 1-.6l1.4 1.5c-.8 1-2 1.5-3.7 1.5-1 0-2-.2-2.7-.6A4.4 4.4 0 0118.8 8 4.4 4.4 0 0121 4a5 5 0 012.5-.7A5 5 0 0126 4c.7.4 1.2 1 1.6 1.6.4.7.7 1.6.7 2.5zm-4.7-2.7c-.6 0-1.1.2-1.5.5-.4.3-.7.8-.8 1.4h4.5c-.1-.6-.3-1-.7-1.4-.4-.3-1-.5-1.5-.5zM35.3 3.3a4.5 4.5 0 014 2.2c.3.7.5 1.5.5 2.5a5 5 0 01-.6 2.4c-.4.7-.9 1.3-1.6 1.7-.7.4-1.4.6-2.3.6-1.2 0-2.2-.4-2.8-1.2v1H30V0h2.6v4.4c.7-.7 1.6-1 2.7-1zm-.4 7.2c.6 0 1.2-.2 1.6-.7.5-.4.7-1 .7-1.8s-.2-1.4-.7-1.8c-.4-.5-1-.7-1.6-.7-.7 0-1.2.2-1.7.7-.4.4-.6 1-.6 1.8 0 .7.2 1.4.6 1.8.5.5 1 .7 1.7.7zM52.5.7v11.8h-2.7V7.7h-5.3v4.8h-2.7V.7h2.7v4.7h5.3V.7h2.7zM64 8l-.1.7h-6.8c.1.6.4 1 .8 1.4.5.3 1 .4 1.8.4.4 0 .8 0 1.2-.2.4-.1.7-.3 1-.6l1.4 1.5c-.8 1-2 1.5-3.7 1.5-1 0-2-.2-2.7-.6A4.4 4.4 0 0154.4 8c0-1 .2-1.7.7-2.4.4-.7 1-1.3 1.7-1.7a5 5 0 012.5-.6 5 5 0 012.4.6c.7.4 1.2 1 1.6 1.6.4.7.6 1.6.6 2.5zm-4.7-2.7c-.6 0-1.1.2-1.5.5-.4.3-.7.8-.8 1.4h4.5c-.1-.6-.4-1-.8-1.4-.4-.3-.8-.5-1.4-.5zM68.2 4.6a3 3 0 011.2-1c.6-.2 1.2-.3 1.9-.3v2.4h-.6c-.7 0-1.3.2-1.8.6-.4.5-.6 1-.6 2v4.2h-2.6v-9h2.5v1.1zM77 12.7c-.9 0-1.8-.2-2.5-.6A4.5 4.5 0 0172 8c0-1 .2-1.7.6-2.4.5-.7 1-1.3 1.8-1.7.7-.4 1.6-.6 2.6-.6.9 0 1.8.2 2.5.6A4.4 4.4 0 0182 8c0 1-.2 1.8-.6 2.5-.5.7-1 1.3-1.8 1.7-.7.4-1.6.6-2.5.6zm0-2.2c.7 0 1.3-.2 1.7-.7.4-.4.7-1 .7-1.8s-.3-1.4-.7-1.8c-.4-.5-1-.7-1.6-.7-.7 0-1.3.2-1.7.7-.4.4-.7 1-.7 1.8 0 .7.3 1.4.7 1.8.4.5 1 .7 1.7.7z" fill="#FFD22E"/><path d="M53 22c-.5 0-1 0-1.5-.2a3 3 0 01-1-.6l.3-.8 1 .6 1.2.2c.5 0 1-.1 1.2-.3.3-.2.4-.4.4-.8 0-.2 0-.4-.2-.5-.1-.2-.3-.3-.6-.4L53 19l-1.2-.4a2 2 0 01-.8-.5c-.2-.3-.3-.6-.3-1s0-.8.2-1c.2-.3.5-.6 1-.7.3-.2.8-.3 1.3-.3.4 0 .8 0 1.2.2.4 0 .7.2 1 .4l-.3.8-1-.4-.9-.2a2 2 0 00-1.2.3 1 1 0 00-.4.8c0 .2 0 .4.2.6l.6.3 1 .2 1.1.4c.4.1.6.3.8.6.3.2.4.6.4 1a1.8 1.8 0 01-1.2 1.6c-.4.2-.9.3-1.4.3zM59 22c-.5 0-1-.1-1.3-.4a2.5 2.5 0 01-1.3-2.2c0-.5 0-1 .3-1.4.2-.4.6-.7 1-.9.4-.2.8-.3 1.3-.3s1 0 1.3.2c.3.2.6.5.8.9l-.7.4a1.6 1.6 0 00-1.4-.7c-.3 0-.6 0-.9.2l-.6.6a2 2 0 00-.2 1c0 .3 0 .6.2 1l.6.5a1.8 1.8 0 001.7 0c.3 0 .5-.2.6-.5l.7.5a2 2 0 01-.8.8c-.4.2-.8.3-1.3.3zM65 16.8a2 2 0 011.5.5c.4.4.6 1 .6 1.7v3h-1v-3c0-.4 0-.8-.3-1-.2-.3-.6-.4-1-.4-.5 0-1 .1-1.2.4-.3.3-.4.7-.4 1.3v2.6h-1v-7.1h1v2.7l.7-.5c.3-.2.7-.2 1-.2zM71 22c-.5 0-1-.1-1.4-.4a2.5 2.5 0 01-1.3-2.2c0-.5.1-1 .4-1.4.2-.4.5-.7 1-.9.3-.2.8-.3 1.3-.3s1 0 1.3.3c.4.2.7.5 1 1 .2.3.3.8.3 1.3s-.1 1-.3 1.3l-1 1c-.4.2-.8.3-1.3.3zm0-.8c.3 0 .6-.1.8-.3.3-.1.5-.3.7-.6l.2-1-.2-.9c-.2-.2-.4-.5-.7-.6-.2-.2-.5-.2-.8-.2-.4 0-.7 0-1 .2l-.5.6a2 2 0 00-.2 1c0 .3 0 .6.2 1 .1.2.3.4.6.5.2.2.5.3.9.3zM77 22c-.5 0-1-.1-1.3-.4a2.5 2.5 0 01-1.3-2.2c0-.5.1-1 .3-1.4.3-.4.6-.7 1-.9.4-.2.8-.3 1.3-.3.6 0 1 0 1.4.3.4.2.7.5 1 1 .2.3.3.8.3 1.3s-.1 1-.4 1.3c-.2.4-.5.7-.9 1-.4.2-.8.3-1.4.3zm0-.8c.4 0 .7-.1 1-.3.2-.1.4-.3.5-.6.2-.3.3-.6.3-1l-.3-.9c-.1-.2-.3-.5-.6-.6-.2-.2-.5-.2-.9-.2-.3 0-.6 0-.8.2-.3.1-.5.4-.6.6a2 2 0 00-.3 1l.3 1c.1.2.3.4.6.5.2.2.5.3.8.3zM81 14.8h.9v7.1h-1v-7.1z" fill="#000"/></svg>